<svg width="400" height="313" viewBox="0 0 400 313" fill="none" xmlns="http://www.w3.org/2000/svg">
<path fill-rule="evenodd" clip-rule="evenodd" d="M363.978 0.723121C339.664 2.76812 313.202 6.67412 288.71 11.8341C226.028 25.0391 161.399 55.4811 112.763 94.7111C49.383 145.834 8.73404 216.624 1.57704 288.343C-0.545957 309.612 -0.0189576 312.139 6.65804 312.695C12.14 313.152 13.032 311.038 14.667 293.704C26.592 167.254 140.622 56.3881 291.398 24.6491C325.649 17.4391 350.214 14.2211 378.495 13.2381C397.808 12.5671 400 12.0311 400 7.97812C400 0.583122 389.881 -1.45488 363.978 0.723121ZM305.108 37.2841C304.073 37.5631 303.123 37.8781 302.996 37.9821C302.87 38.0871 302.507 59.0601 302.19 84.5891C301.873 110.119 301.21 131.409 300.719 131.901C300.227 132.393 281.84 133.064 259.858 133.391C237.877 133.719 219.772 134.082 219.624 134.198C218.449 135.12 219.99 142.624 223.253 151.864C225.398 157.935 229.701 170.161 232.816 179.032C235.931 187.903 240.274 200 242.467 205.914C244.66 211.828 248.563 222.715 251.141 230.108C280.905 315.461 278.212 309.677 288.189 309.677C297.403 309.677 296.748 312.048 296.901 278.138C296.971 262.662 297.339 248.548 297.717 246.774L298.406 243.548L348.167 243.011C390.818 242.55 398.077 242.243 398.966 240.86C400.255 238.856 399.863 39.2891 398.567 37.9921C397.638 37.0631 308.429 36.3861 305.108 37.2841ZM360.753 103.074C379.754 114.798 382.236 144.674 365.596 161.371C341.235 185.816 312.046 139.821 333.577 110.919C340.435 101.713 352.775 98.1511 360.753 103.074ZM102.718 138.661C102.37 139.225 103.849 144.669 106.005 150.757C114.035 173.43 127.282 211.756 131.945 225.806C134.595 233.79 138.208 244.194 139.974 248.925C141.74 253.656 146.463 267.303 150.469 279.252C154.475 291.2 158.56 302.208 159.546 303.714L161.34 306.452H181.745H202.151V303.832C202.151 302.391 200.676 297.431 198.874 292.81C192.363 276.114 186.111 258.424 185.054 253.705C184.46 251.056 182.688 245.993 181.117 242.455C177.19 233.612 171.172 217.02 168.836 208.595C167.77 204.747 165.598 198.457 164.011 194.617C162.424 190.776 158.243 179.021 154.719 168.494C151.195 157.967 147.146 146.717 145.721 143.494L143.129 137.634H123.241C111.776 137.634 103.084 138.069 102.718 138.661ZM163.005 138.546C162.444 139.453 168.014 156.198 184.878 204.301C189.75 218.199 195.597 235.134 197.87 241.935C200.144 248.737 204.253 260.591 207.003 268.28C209.753 275.968 213.536 286.905 215.41 292.585C220.337 307.519 218.284 306.452 242.067 306.452C264.952 306.452 264.389 306.706 260.617 298.084C259.655 295.885 255.838 285.376 252.135 274.731C236.068 228.546 232.009 217.128 228.05 206.989C225.741 201.075 222.797 192.608 221.507 188.172C220.217 183.737 216.795 174.059 213.903 166.667C211.01 159.274 207.669 150.375 206.478 146.891C203.145 137.142 204.409 137.634 182.727 137.634C172.19 137.634 163.314 138.044 163.005 138.546ZM86.656 160.402C84.343 165.705 72.872 198.499 67.738 214.486C65.274 222.157 61.53 232.802 59.418 238.142C57.306 243.481 54.219 252.446 52.556 258.065C50.894 263.683 48.269 271.667 46.721 275.806C39.529 295.05 36.489 304.393 37.098 305.379C37.883 306.649 137.465 306.868 139.453 305.604C141.153 304.523 137.432 291.331 128.794 267.815C125.195 258.017 120.925 245.403 119.305 239.785C117.685 234.167 114.387 224.596 111.976 218.516C109.565 212.436 105.679 201.307 103.342 193.785C97.7271 175.711 90.858 157.705 89.392 157.217C88.745 157.001 87.514 158.434 86.656 160.402Z" fill="white"/>
</svg>
