<svg xmlns="http://www.w3.org/2000/svg" version="1.1" xmlns:xlink="http://www.w3.org/1999/xlink" width="395" height="310"><svg width="395" height="310" viewBox="0 0 395 310" fill="none" xmlns="http://www.w3.org/2000/svg">
<path fill-rule="evenodd" clip-rule="evenodd" d="M368.207 19.7852C360.351 20.1112 353.455 20.6762 349.586 21.3102C347.974 21.5742 342.698 22.1912 337.862 22.6802C325.664 23.9152 323.785 24.1602 319.069 25.1332C316.793 25.6022 312.448 26.3842 309.414 26.8692C306.379 27.3552 301.491 28.3422 298.552 29.0622C295.612 29.7832 290.816 30.7882 287.894 31.2952C284.971 31.8032 281.402 32.5902 279.963 33.0442C278.523 33.4992 275.328 34.3262 272.862 34.8832C270.397 35.4402 267.216 36.3162 265.793 36.8292C264.371 37.3432 261.726 38.2082 259.917 38.7512C258.107 39.2942 255.469 40.2172 254.055 40.8012C252.64 41.3862 249.358 42.3872 246.76 43.0252C244.163 43.6632 240.827 44.7232 239.347 45.3802C237.866 46.0362 235.491 46.9152 234.069 47.3312C232.647 47.7482 230.629 48.5652 229.586 49.1472C226.737 50.7392 220.916 53.1362 216.67 54.4682C214.591 55.1192 212.031 56.1492 210.98 56.7562C209.929 57.3632 207.983 58.3372 206.655 58.9202C205.328 59.5022 203.616 60.3932 202.851 60.9002C202.086 61.4062 200.477 62.2062 199.275 62.6772C198.073 63.1482 196.371 63.9932 195.493 64.5542C194.615 65.1162 192.669 66.0482 191.168 66.6242C189.667 67.2012 187.872 68.0482 187.179 68.5072C186.486 68.9652 184.921 69.8402 183.701 70.4502C182.481 71.0602 180.678 72.1732 179.695 72.9252C178.712 73.6762 177.082 74.6022 176.074 74.9832C173.143 76.0902 169.656 78.1832 162.442 83.1632C160.966 84.1832 158.442 85.7292 156.833 86.6002C154.042 88.1112 150.753 90.4062 148.264 92.5782C147.218 93.4912 143.326 96.1052 138.638 99.0412C137.642 99.6652 136.828 100.298 136.828 100.447C136.828 100.876 131.351 105.381 129.088 106.814C124.376 109.797 104.635 128.033 96.0381 137.345C94.7251 138.767 92.1001 141.579 90.2051 143.592C88.3111 145.606 86.1751 148.18 85.4591 149.312C84.7441 150.444 82.9321 152.675 81.4331 154.271C79.9351 155.867 78.3341 157.716 77.8771 158.379C76.0661 161.01 72.3531 165.874 71.8191 166.318C71.5071 166.576 70.7361 167.814 70.1041 169.067C69.4731 170.321 67.5671 173.201 65.8701 175.467C64.1721 177.732 62.3571 180.44 61.8361 181.483C61.3151 182.526 60.4961 183.902 60.0161 184.541C58.9111 186.012 56.8521 189.631 54.5621 194.128C53.5791 196.057 52.4261 198.126 51.9981 198.727C51.5711 199.327 50.7001 201.146 50.0621 202.77C49.4251 204.394 48.4541 206.436 47.9041 207.309C46.2581 209.924 43.0401 216.628 41.9281 219.759C41.3551 221.371 40.4591 223.543 39.9361 224.586C39.4131 225.629 38.5701 227.957 38.0621 229.759C37.5551 231.56 36.6151 234.353 35.9741 235.966C35.3331 237.578 34.4661 240.367 34.0471 242.164C33.6281 243.961 32.9091 246.521 32.4501 247.854C31.9901 249.186 30.9951 252.681 30.2371 255.621C29.4801 258.56 28.5591 261.948 28.1911 263.148C27.2251 266.304 26.5801 270.636 25.7951 279.241C25.4151 283.414 25.0261 287.371 24.9301 288.034C23.5121 297.856 23.4411 305.964 24.7611 307.467C29.0051 312.301 34.7811 309.767 35.2591 302.862C36.3741 286.758 37.6871 275.943 39.2561 269.931C39.8001 267.845 40.6381 263.957 41.1171 261.293C42.0461 256.123 44.9161 245.933 47.1601 239.834C47.9111 237.792 48.8591 235.039 49.2671 233.716C49.6741 232.393 50.4711 230.302 51.0381 229.069C51.6051 227.836 52.4401 225.756 52.8941 224.447C53.3481 223.138 54.2561 221.089 54.9131 219.894C55.5701 218.7 56.5631 216.435 57.1191 214.861C58.3341 211.429 64.6461 199.286 66.5391 196.74C67.2801 195.744 68.3951 193.721 69.0181 192.246C70.1701 189.514 72.1431 186.344 74.4311 183.552C75.1301 182.698 76.2691 181.015 76.9631 179.811C77.6571 178.607 78.6861 177.055 79.2491 176.362C82.3591 172.537 83.8811 170.454 84.6001 169.038C85.0421 168.168 86.7531 165.918 88.4021 164.038C90.0511 162.159 91.8991 159.882 92.5091 158.98C94.0941 156.635 99.9271 150.167 106.158 143.846C109.108 140.853 112.129 137.661 112.871 136.754C114.448 134.825 122.834 126.948 124.895 125.461C125.673 124.899 128.045 122.882 130.165 120.978C135.109 116.539 137.79 114.301 140.793 112.109C142.121 111.14 144.095 109.586 145.181 108.657C146.267 107.728 148.206 106.33 149.491 105.55C150.776 104.77 152.371 103.691 153.034 103.152C155.388 101.242 159.088 98.6482 160.448 97.9542C161.207 97.5682 162.914 96.4922 164.241 95.5642C170.813 90.9682 176.19 87.6332 180.131 85.7082C181.633 84.9742 183.638 83.9012 184.586 83.3242C193.428 77.9422 198.12 75.3392 200.592 74.4452C201.841 73.9942 205.586 72.2192 208.915 70.5012C212.244 68.7832 216.201 66.9222 217.708 66.3662C219.215 65.8102 221.845 64.7292 223.552 63.9632C225.259 63.1972 227.65 62.2382 228.866 61.8322C230.082 61.4262 231.867 60.6932 232.832 60.2042C233.797 59.7152 235.595 58.9692 236.828 58.5462C238.06 58.1242 240.466 57.1482 242.172 56.3772C243.882 55.6052 247.013 54.5842 249.143 54.1052C251.27 53.6252 254.09 52.7742 255.409 52.2132C256.728 51.6512 259.304 50.7842 261.133 50.2862C262.962 49.7882 265.728 48.9092 267.281 48.3332C268.833 47.7572 272.431 46.6832 275.276 45.9462C278.121 45.2102 281.69 44.2312 283.207 43.7722C284.724 43.3142 288.371 42.5242 291.31 42.0192C294.25 41.5132 298.284 40.6432 300.276 40.0862C302.267 39.5282 306.767 38.5982 310.276 38.0182C313.784 37.4392 318.052 36.6702 319.759 36.3082C324.806 35.2402 326.553 34.9982 335.966 34.0622C340.897 33.5712 347.103 32.8702 349.759 32.5042C357.741 31.4022 367.038 30.7962 379.236 30.5822C385.592 30.4702 391.35 30.2402 392.031 30.0702C396.506 28.9542 395.048 22.4582 389.786 20.0682C388.213 19.3532 380.913 19.2572 368.207 19.7852ZM316.138 53.5522C307.047 53.7372 306.043 53.9322 305.027 55.7102C304.678 56.3212 304.55 65.1652 304.414 98.0342C304.244 138.99 304.231 139.604 303.542 140.793C301.949 143.543 304.488 143.366 264.953 143.488C225.887 143.608 227.857 143.485 227.196 145.852C226.783 147.334 228.394 153.649 230.25 157.824C230.766 158.983 231.391 160.707 231.64 161.655C231.889 162.603 232.92 165.552 233.932 168.207C237.819 178.413 238.654 180.764 239.977 185.243C240.728 187.785 241.476 190.113 241.638 190.417C241.926 190.954 244.12 196.902 248.202 208.207C249.297 211.241 251.085 216.052 252.175 218.897C253.264 221.741 254.824 226.319 255.642 229.069C256.46 231.819 257.515 234.939 257.987 236.003C258.458 237.066 259.255 239.281 259.756 240.925C260.257 242.568 261.209 245.101 261.87 246.553C262.532 248.004 263.439 250.445 263.886 251.975C264.332 253.506 265.178 255.95 265.764 257.406C266.351 258.862 267.236 261.578 267.731 263.441C268.226 265.303 268.988 267.534 269.425 268.398C269.862 269.262 270.719 271.512 271.329 273.398C271.94 275.284 272.82 277.681 273.284 278.724C274.285 280.972 276.954 288.324 279.278 295.228C283.175 306.813 283.465 307.094 291.33 306.937C299.606 306.772 298.892 309.819 298.895 274.661C298.897 245.288 298.828 246.239 301.025 245.04C302.112 244.447 304.521 244.405 347.061 244.241C397.428 244.048 393.421 244.27 394.132 241.632C394.69 239.563 394.481 56.7502 393.919 55.6642C392.795 53.4912 395.034 53.6272 358.181 53.4972C339.704 53.4322 320.784 53.4572 316.138 53.5522ZM355.632 113.006C358.143 113.803 360.959 115.623 364.644 118.83C366.415 120.371 370.47 127.497 371.971 131.704C376.656 144.839 373.386 159.392 363.395 169.873C355.787 177.853 344.083 178.118 336.582 170.48C327.999 161.74 325.977 156.595 326 143.552C326.018 133.321 327.55 128.238 332.494 122.007C333.099 121.245 333.848 120.212 334.158 119.712C337.771 113.896 348.19 110.642 355.632 113.006Z" fill="#0F2B8E"></path>
<path fill-rule="evenodd" clip-rule="evenodd" d="M120.377 147.272C117.926 147.51 117.898 148.983 120.244 154.12C120.9 155.558 121.769 158.296 122.174 160.206C122.58 162.119 123.473 164.849 124.161 166.284C124.85 167.717 125.908 170.295 126.514 172.012C127.119 173.729 128.001 175.9 128.473 176.835C128.947 177.771 129.722 180.294 130.197 182.443C130.671 184.591 131.615 187.577 132.291 189.078C132.969 190.579 133.773 192.886 134.078 194.205C134.384 195.523 135.121 197.635 135.717 198.898C136.314 200.161 137.339 203.254 137.996 205.771C138.654 208.288 139.573 211.103 140.04 212.025C140.506 212.948 141.319 214.975 141.845 216.533C142.372 218.09 143.415 220.717 144.164 222.371C144.913 224.025 145.931 227.104 146.427 229.213C146.924 231.323 147.903 234.348 148.604 235.936C149.398 237.738 150.124 240.221 150.534 242.539C151.023 245.304 151.542 246.934 152.564 248.908C153.32 250.368 154.298 252.912 154.738 254.561C155.178 256.21 155.999 258.423 156.56 259.476C157.123 260.531 158.077 263.003 158.681 264.97C159.284 266.937 160.158 269.454 160.621 270.564C161.086 271.673 161.96 274.3 162.566 276.401C163.173 278.504 164.108 281.194 164.644 282.381C165.181 283.569 165.8 285.319 166.021 286.274C166.241 287.227 166.663 289.03 166.959 290.279C167.254 291.527 168.116 293.927 168.875 295.613C169.634 297.299 170.524 299.621 170.857 300.774C171.777 303.973 172.989 306.104 174.455 307.102L175.775 308H193.506C213.548 308 212.9 308.086 212.8 305.406C212.719 303.254 211.686 299.806 210.432 297.506C209.779 296.307 208.897 294.157 208.472 292.729C208.047 291.3 207.25 289.236 206.698 288.143C206.148 287.049 205.29 284.707 204.792 282.936C204.295 281.165 203.155 277.925 202.26 275.736C201.364 273.548 200.424 271.115 200.171 270.329C199.918 269.543 199.24 267.778 198.664 266.406C197.545 263.742 197.174 262.385 196.08 256.971C195.666 254.92 194.819 252.316 193.983 250.518C193.21 248.861 192.201 246.502 191.74 245.275C191.278 244.049 190.493 242.241 189.995 241.256C189.497 240.272 188.669 237.969 188.155 236.138C187.209 232.773 185.212 227.402 182.666 221.377C181.785 219.296 180.933 216.369 180.35 213.423C179.768 210.479 179.05 208.013 178.402 206.728C177.838 205.611 176.995 203.526 176.529 202.096C176.063 200.664 175.048 198.232 174.275 196.691C173.501 195.149 172.59 192.613 172.251 191.056C171.912 189.5 171.028 186.945 170.289 185.379C169.549 183.813 168.522 180.868 168.009 178.833C167.494 176.798 166.543 173.924 165.894 172.446C165.246 170.968 164.292 168.033 163.775 165.927C163.258 163.819 162.225 160.649 161.478 158.883C160.733 157.117 159.631 154.478 159.029 153.019C157.486 149.271 156.686 148.098 155.265 147.504C154.104 147.018 124.977 146.824 120.377 147.272ZM177.909 147.266C175.688 147.59 175.46 148.617 176.893 151.825C177.404 152.969 178.284 155.551 178.85 157.563C179.415 159.576 180.41 162.283 181.062 163.578C181.818 165.08 182.53 167.346 183.026 169.826C183.453 171.967 184.333 174.912 184.979 176.373C185.625 177.832 186.5 180.221 186.922 181.68C187.345 183.14 188.254 185.369 188.944 186.634C189.667 187.961 190.612 190.58 191.177 192.826C191.716 194.966 192.632 197.753 193.212 199.018C193.792 200.282 194.693 202.892 195.215 204.816C195.737 206.74 196.638 209.157 197.219 210.186C197.856 211.316 198.541 213.367 198.945 215.357C199.715 219.144 200.498 221.861 200.997 222.476C201.188 222.71 202.014 224.892 202.835 227.325C203.656 229.758 204.778 232.642 205.328 233.735C205.879 234.829 206.743 237.217 207.248 239.043C207.753 240.869 208.7 243.716 209.353 245.37C210.006 247.024 210.974 250.288 211.504 252.624C212.185 255.624 212.813 257.442 213.648 258.817C214.372 260.01 215.108 261.972 215.551 263.891C215.948 265.612 216.83 268.224 217.509 269.695C218.188 271.167 219.138 273.979 219.619 275.943C220.099 277.908 221.052 280.63 221.736 281.993C222.419 283.354 223.442 285.902 224.008 287.654C224.574 289.405 225.467 291.861 225.993 293.111C226.518 294.361 227.267 296.988 227.657 298.949C228.479 303.088 229.496 305.314 231.279 306.881L232.551 308H250.69C270.665 308 270.003 308.073 269.996 305.848C269.992 304.539 268.763 300.779 267.74 298.946C267.235 298.044 266.331 295.692 265.728 293.718C265.125 291.745 264.099 288.936 263.448 287.477C262.796 286.017 261.867 283.151 261.385 281.108C260.901 279.064 260.006 276.325 259.394 275.021C258.783 273.717 257.741 270.56 257.08 268.003C256.418 265.447 255.414 262.534 254.849 261.529C254.284 260.523 253.626 259.064 253.386 258.285C253.147 257.507 252.27 255.277 251.438 253.332C250.606 251.385 249.5 248.439 248.98 246.785C248.459 245.131 247.409 242.026 246.646 239.886C245.882 237.745 244.928 234.761 244.527 233.256C244.127 231.749 243.354 229.521 242.81 228.302C242.267 227.084 241.48 224.694 241.06 222.993C240.641 221.29 239.72 218.663 239.013 217.154C238.307 215.644 237.293 213.123 236.762 211.552C236.23 209.98 235.374 208.026 234.859 207.211C234.344 206.395 233.547 204.338 233.085 202.638C232.624 200.939 231.767 198.261 231.18 196.687C230.592 195.113 229.635 191.592 229.051 188.862C228.373 185.69 227.589 183.106 226.881 181.701C226.272 180.493 225.325 178.282 224.776 176.788C224.228 175.294 222.473 170.967 220.875 167.172C219.277 163.378 217.347 158.239 216.585 155.754C214.629 149.369 214.047 148.245 212.344 147.563C211.004 147.027 181.297 146.769 177.909 147.266ZM104.301 166.908C103.551 167.691 102.959 168.902 102.442 170.71C101.123 175.325 100.264 177.829 99.6093 178.975C99.2597 179.587 98.5585 181.76 98.0511 183.803C97.5426 185.846 96.5512 188.633 95.8469 189.995C95.1426 191.357 94.2005 193.936 93.7545 195.724C93.3075 197.514 92.5427 199.664 92.0537 200.502C91.5647 201.339 90.6636 203.777 90.0526 205.918C89.4415 208.058 88.4061 211.402 87.751 213.348C87.0959 215.295 86.082 218.653 85.4987 220.813C84.9154 222.972 83.8891 225.997 83.2176 227.535C82.5472 229.073 81.6471 231.527 81.2185 232.986C80.789 234.446 79.9955 236.619 79.4542 237.818C78.9129 239.015 78.0446 241.324 77.5238 242.949C77.004 244.572 75.9522 247.272 75.1863 248.947C74.4205 250.623 73.4856 253.438 73.1093 255.203C72.7321 256.966 72.0154 259.218 71.5152 260.204C71.0149 261.193 70.2255 263.92 69.7559 266.282C69.1521 269.317 68.4827 271.443 67.4605 273.575C66.6671 275.231 65.688 277.879 65.2851 279.459C64.8812 281.039 64.018 283.291 63.366 284.462C62.7129 285.634 61.9112 287.707 61.5832 289.069C61.2551 290.431 60.3109 292.979 59.4856 294.731C58.5927 296.625 57.5829 299.62 56.9924 302.125L56 306.336L56.9657 307.167L57.9315 308L104.133 307.998C157.087 307.995 154.407 308.174 153.396 304.699C153.159 303.887 152.488 301.311 151.904 298.976C151.321 296.642 150.23 293.058 149.482 291.015C148.733 288.971 147.844 286.026 147.507 284.47C147.17 282.912 146.412 280.683 145.824 279.516C145.236 278.348 144.283 275.88 143.705 274.031C143.127 272.182 142.115 269.596 141.454 268.284C140.794 266.971 140.088 265.061 139.885 264.037C139.682 263.014 138.885 260.814 138.113 259.148C137.341 257.482 136.242 254.217 135.672 251.894C135.101 249.571 134.163 246.237 133.586 244.486C133.009 242.734 132.117 239.629 131.604 237.586C131.092 235.542 130.062 232.676 129.319 231.217C128.575 229.758 127.68 227.528 127.331 226.263C126.983 224.999 126.112 222.69 125.398 221.132C124.683 219.576 123.745 217.108 123.313 215.649C122.88 214.188 121.975 211.762 121.3 210.255C120.626 208.749 119.834 206.36 119.543 204.948C118.673 200.732 118.032 198.47 116.913 195.675C116.33 194.218 115.594 191.866 115.278 190.449C114.961 189.032 114.08 186.532 113.317 184.895C112.554 183.256 111.525 180.629 111.03 179.056C110.534 177.483 109.681 175.306 109.134 174.221C108.588 173.135 107.878 171.232 107.557 169.991C106.428 165.63 105.953 165.181 104.301 166.908Z" fill="#159133"></path>
<path fill-rule="evenodd" clip-rule="evenodd" d="M366.794 0.357957C358.427 0.705823 351.082 1.30872 346.962 1.98524C345.245 2.26695 339.626 2.92534 334.475 3.44714C321.483 4.76497 319.482 5.0264 314.459 6.06467C312.035 6.56512 307.408 7.39957 304.176 7.91711C300.944 8.4357 295.738 9.48891 292.608 10.2572C289.476 11.0266 284.368 12.099 281.256 12.64C278.143 13.182 274.342 14.0218 272.809 14.5063C271.276 14.9918 267.873 15.8743 265.247 16.4686C262.621 17.063 259.233 17.9978 257.718 18.5452C256.203 19.0936 253.386 20.0167 251.459 20.5961C249.532 21.1755 246.722 22.1604 245.216 22.7836C243.709 23.4078 240.214 24.476 237.446 25.1567C234.681 25.8375 231.128 26.9686 229.551 27.6697C227.974 28.3697 225.444 29.3077 223.93 29.7516C222.415 30.1965 220.266 31.0683 219.155 31.6894C216.121 33.3882 209.921 35.9459 205.399 37.3673C203.185 38.0619 200.458 39.161 199.339 39.8087C198.219 40.4564 196.147 41.4958 194.733 42.1179C193.319 42.7389 191.496 43.6897 190.681 44.2307C189.866 44.7706 188.153 45.6243 186.872 46.1269C185.592 46.6295 183.779 47.5311 182.844 48.1298C181.909 48.7295 179.837 49.724 178.238 50.3386C176.639 50.9543 174.728 51.8581 173.99 52.3479C173.251 52.8366 171.585 53.7703 170.285 54.4212C168.986 55.0722 167.066 56.2598 166.019 57.0623C164.972 57.8636 163.236 58.8517 162.162 59.2583C159.04 60.4395 155.327 62.6729 147.643 67.9869C146.071 69.0754 143.383 70.7251 141.669 71.6545C138.697 73.2668 135.194 75.7158 132.543 78.0334C131.429 79.0077 127.284 81.797 122.291 84.9299C121.23 85.5958 120.363 86.2712 120.363 86.4302C120.363 86.888 114.53 91.6952 112.119 93.2243C107.101 96.4074 86.0757 115.867 76.9195 125.803C75.5211 127.321 72.7253 130.321 70.707 132.469C68.6898 134.618 66.4148 137.365 65.6523 138.573C64.8908 139.781 62.9609 142.161 61.3644 143.864C59.7689 145.567 58.0638 147.54 57.577 148.248C55.6482 151.055 51.6937 156.246 51.1249 156.719C50.7926 156.995 49.9715 158.316 49.2984 159.653C48.6263 160.991 46.5963 164.064 44.7889 166.482C42.9805 168.899 41.0474 171.789 40.4925 172.902C39.9376 174.015 39.0653 175.483 38.5541 176.165C37.3772 177.734 35.1843 181.596 32.7453 186.395C31.6984 188.453 30.4704 190.661 30.0145 191.302C29.5597 191.942 28.6321 193.883 27.9526 195.616C27.2741 197.349 26.24 199.528 25.6542 200.46C23.9011 203.25 20.4738 210.404 19.2894 213.745C18.6791 215.465 17.7249 217.783 17.1678 218.896C16.6108 220.009 15.713 222.493 15.1719 224.416C14.6319 226.337 13.6308 229.318 12.9481 231.039C12.2654 232.759 11.342 235.735 10.8957 237.653C10.4495 239.57 9.6837 242.302 9.19484 243.724C8.70492 245.146 7.64519 248.875 6.83788 252.012C6.03163 255.148 5.05072 258.764 4.65878 260.044C3.62994 263.412 2.94298 268.034 2.10691 277.217C1.70219 281.669 1.28789 285.892 1.18564 286.599C-0.324606 297.08 -0.400223 305.732 1.00565 307.336C5.52573 312.494 11.6775 309.79 12.1866 302.422C13.3741 285.238 14.7725 273.697 16.4436 267.282C17.023 265.056 17.9155 260.907 18.4257 258.065C19.4151 252.548 22.4718 241.675 24.8618 235.166C25.6616 232.987 26.6713 230.05 27.1058 228.638C27.5393 227.226 28.3882 224.995 28.9921 223.679C29.5959 222.364 30.4853 220.144 30.9688 218.747C31.4523 217.351 32.4194 215.164 33.1191 213.889C33.8189 212.615 34.8765 210.198 35.4687 208.518C36.7627 204.856 43.4853 191.899 45.5015 189.182C46.2907 188.119 47.4782 185.96 48.1417 184.387C49.3687 181.471 51.47 178.089 53.9069 175.109C54.6513 174.198 55.8644 172.402 56.6036 171.117C57.3427 169.833 58.4387 168.177 59.0383 167.437C62.3506 163.356 63.9716 161.133 64.7374 159.622C65.2081 158.694 67.0304 156.293 68.7867 154.287C70.543 152.281 72.5112 149.852 73.1609 148.889C74.849 146.387 81.0615 139.485 87.6978 132.74C90.8397 129.546 94.0573 126.14 94.8475 125.172C96.5271 123.114 105.459 114.709 107.654 113.122C108.482 112.522 111.009 110.37 113.267 108.338C118.532 103.602 121.388 101.213 124.586 98.8745C126 97.8405 128.103 96.1822 129.259 95.1909C130.416 94.1996 132.481 92.7078 133.85 91.8755C135.218 91.0432 136.917 89.8918 137.623 89.3167C140.13 87.2786 144.071 84.5106 145.52 83.77C146.328 83.3581 148.146 82.21 149.559 81.2197C156.559 76.3155 162.286 72.7568 166.483 70.7026C168.083 69.9194 170.218 68.7744 171.228 68.1587C180.645 62.4158 185.642 59.6382 188.275 58.6842C189.605 58.2029 193.594 56.3089 197.14 54.4757C200.685 52.6424 204.9 50.6566 206.505 50.0633C208.11 49.47 210.911 48.3165 212.729 47.4991C214.547 46.6818 217.093 45.6584 218.388 45.2252C219.684 44.792 221.585 44.0098 222.612 43.488C223.64 42.9662 225.555 42.1702 226.868 41.7188C228.181 41.2685 230.743 40.227 232.56 39.4043C234.381 38.5805 237.716 37.4911 239.985 36.9799C242.25 36.4677 245.253 35.5597 246.658 34.961C248.063 34.3613 250.807 33.4362 252.754 32.9048C254.702 32.3734 257.648 31.4354 259.302 30.8208C260.955 30.2061 264.787 29.0601 267.818 28.2737C270.848 27.4883 274.649 26.4436 276.264 25.9538C277.88 25.4651 281.764 24.6221 284.895 24.0833C288.026 23.5433 292.322 22.615 294.444 22.0206C296.564 21.4252 301.357 20.4328 305.094 19.8139C308.831 19.1961 313.376 18.3755 315.194 17.9892C320.57 16.8496 322.43 16.5913 332.456 15.5926C337.707 15.0686 344.317 14.3206 347.146 13.9301C355.647 12.7542 365.549 12.1075 378.541 11.8792C385.31 11.7596 391.443 11.5142 392.168 11.3328C396.934 10.142 395.381 3.21024 389.777 0.659939C388.102 -0.103019 380.327 -0.205458 366.794 0.357957Z" fill="#159133"></path>
</svg><style>@media (prefers-color-scheme: light) { :root { filter: none; } }
@media (prefers-color-scheme: dark) { :root { filter: none; } }
</style></svg>